<?xml version="1.0" encoding="iso-8859-1"?>
<!-- Generator: Adobe Illustrator 17.0.2, SVG Export Plug-In . SVG Version: 6.00 Build 0)  -->
<!DOCTYPE svg PUBLIC "-//W3C//DTD SVG 1.1//EN" "http://www.w3.org/Graphics/SVG/1.1/DTD/svg11.dtd">
<svg version="1.1" id="Capa_1" xmlns="http://www.w3.org/2000/svg" xmlns:xlink="http://www.w3.org/1999/xlink" x="0px" y="0px"
	 width="64px" height="64px" viewBox="0 0 64 64" style="enable-background:new 0 0 64 64;" xml:space="preserve">
<g>
	<path d="M59.585,22.113v-7.876v-0.863c0-4.513-3.984-8.19-8.932-8.317v0.001v1.998v0.002v2.009v0.004v1.141
		c0,2.929-2.383,5.312-5.312,5.312c-2.929,0-5.312-2.383-5.312-5.312V9.044v-2v-2H24.968v2v2v1.168c0,2.929-2.383,5.312-5.312,5.312
		c-2.929,0-5.312-2.383-5.312-5.312V9.088V9.081V7.066V7.064V5.066V5.064c-4.867,0.206-8.76,3.849-8.76,8.309v0.863v7.876v27.74
		c0,5.068,4.124,9.192,9.192,9.192h35.616c5.068,0,9.192-4.124,9.192-9.192V22.113z M55.585,49.853c0,2.863-2.329,5.192-5.192,5.192
		H14.777c-2.863,0-5.192-2.329-5.192-5.192v-27.74h46V49.853z"/>
	<path d="M17.345,3.534v1.51v2v2v1.168c0,1.277,1.035,2.312,2.312,2.312c1.277,0,2.312-1.035,2.312-2.312V9.044v-2v-2v-1.51
		c0-1.277-1.035-2.312-2.312-2.312C18.38,1.223,17.345,2.258,17.345,3.534z"/>
	<path d="M45.342,1.223c-1.277,0-2.312,1.035-2.312,2.312v1.51v2v2v1.168c0,1.277,1.035,2.312,2.312,2.312s2.312-1.035,2.312-2.312
		V9.044v-2v-2v-1.51C47.653,2.258,46.618,1.223,45.342,1.223z"/>
	<path d="M25.893,49.739c2.608,0,4.577-0.728,5.909-2.185c1.329-1.457,1.995-3.146,1.995-5.068c0-1.828-0.569-3.269-1.708-4.324
		c-0.309-0.284-0.589-0.51-0.839-0.678c-0.458-0.308-0.492-0.529-0.061-0.864c0.242-0.188,0.48-0.416,0.713-0.683
		c0.794-0.919,1.191-2.047,1.191-3.384c0-1.89-0.664-3.397-1.995-4.52s-3.081-1.684-5.251-1.684c-1.168,0-2.154,0.141-2.958,0.423
		c-0.803,0.282-1.496,0.689-2.081,1.222c-0.782,0.752-1.356,1.572-1.722,2.46c-0.241,0.71-0.408,1.449-0.5,2.216
		c-0.066,0.548,0.37,0.996,0.922,0.996h2.167c0.552,0,0.978-0.451,1.058-0.998c0.097-0.665,0.315-1.225,0.652-1.681
		c0.495-0.668,1.269-1.003,2.321-1.003c0.917,0,1.627,0.272,2.133,0.815c0.504,0.543,0.757,1.248,0.757,2.115
		c0,1.337-0.495,2.225-1.483,2.663c-0.43,0.196-1.107,0.324-2.029,0.385c-0.551,0.036-0.999,0.486-0.999,1.038v1.196
		c0,0.552,0.449,0.995,1.001,1.025c0.977,0.052,1.727,0.184,2.248,0.398c1.208,0.501,1.812,1.499,1.812,2.992
		c0,1.128-0.326,1.992-0.977,2.593c-0.651,0.601-1.415,0.901-2.29,0.901c-1.428,0-2.413-0.548-2.954-1.645
		c-0.177-0.362-0.3-0.781-0.37-1.258c-0.08-0.546-0.515-0.998-1.068-0.998h-2.387c-0.552,0-0.987,0.448-0.926,0.997
		c0.149,1.355,0.49,2.485,1.021,3.389C20.446,48.69,22.679,49.739,25.893,49.739z"/>
	<path d="M38.321,33.509h3.342c0.552,0,1,0.448,1,1v13.666c0,0.552,0.448,1,1,1h2.575c0.552,0,1-0.448,1-1V27.459
		c0-0.552-0.448-1-1-1h-1.729c-0.552,0-1.007,0.208-1.06,0.458c-0.028,0.132-0.065,0.282-0.113,0.45
		c-0.197,0.679-0.49,1.222-0.875,1.629c-0.563,0.595-1.292,0.992-2.188,1.191c-0.418,0.093-1.07,0.169-1.955,0.228
		c-0.551,0.036-0.998,0.502-0.998,1.054v1.039C37.321,33.061,37.769,33.509,38.321,33.509z"/>
</g>
</svg>
