<?xml version="1.0" encoding="iso-8859-1"?>
<!-- Generator: Adobe Illustrator 16.0.0, SVG Export Plug-In . SVG Version: 6.00 Build 0)  -->
<!DOCTYPE svg PUBLIC "-//W3C//DTD SVG 1.1//EN" "http://www.w3.org/Graphics/SVG/1.1/DTD/svg11.dtd">
<svg version="1.1" xmlns="http://www.w3.org/2000/svg" xmlns:xlink="http://www.w3.org/1999/xlink" x="0px" y="0px" width="512px"
	 height="512px" viewBox="0 0 512 512" style="enable-background:new 0 0 512 512;" xml:space="preserve">
<g id="Artwork">
</g>
<g id="icons">
	<g>
		<path d="M218.533,94.798c22.812,0,41.301-18.493,41.301-41.3c0-22.813-18.489-41.306-41.301-41.306
			c-22.808,0-41.302,18.493-41.302,41.306C177.231,76.305,195.726,94.798,218.533,94.798z"/>
		<path d="M470.514,372.563l-53.555-46.035c-0.357-0.306-0.724-0.587-1.1-0.844c-13.039-10.173-29.252-14.942-45.778-13.441
			c-13.48,1.225-26.004,6.526-36.133,15.155L277.1,278.535c1.502-2.416,2.671-5.213,3.379-8.391
			c13.131-58.942,31.138-134.713-25.522-156.989c-27.323-10.743-61.955-9.255-82.003,6.846
			c-15.971,12.824-23.501,18.832-42.246,32.706l-32.201-27.678c-1.19-3.675-2.433-7.261-3.776-10.551
			c-3.38-8.272-13.766-13.594-22.457-11.997L59.391,91.407c-1.538-1.324-3.859-1.149-5.183,0.388l-8.431,9.813
			c-1.324,1.54-1.147,3.859,0.39,5.182l11.406,9.804c-1.13,6.141-0.306,15.321,3.744,29.681
			c5.621,19.931,33.348,79.91,62.561,63.796c8.215-4.531,16.315-9.911,24.191-15.692l20.271,17.424
			c-0.313,67.47-1.336,210.295-3.607,265.404c-1.264,30.447,45.959,30.321,47.201,0c2.209-53.665,2.757-107.364,2.895-161.067
			c2.232,0.127,4.481,0.11,6.713-0.031c0.129,53.709,0.68,107.387,2.894,161.098c1.248,30.321,48.452,30.447,47.205,0
			c-1.508-36.4-2.245-112.295-2.604-178.853l51.688,44.427c-7.01,11.312-10.37,24.488-9.555,38
			c0.998,16.562,8.148,31.877,20.164,43.237c0.31,0.334,0.644,0.655,1,0.961l53.556,46.034c5.13,4.409,12.863,3.824,17.271-1.306
			l68.656-79.877C476.229,384.701,475.643,376.97,470.514,372.563z"/>
	</g>
</g>
</svg>
