<?xml version="1.0" encoding="utf-8"?>
<!-- Generator: Adobe Illustrator 18.1.0, SVG Export Plug-In . SVG Version: 6.00 Build 0)  -->
<svg version="1.1" id="Capa_1" xmlns="http://www.w3.org/2000/svg" xmlns:xlink="http://www.w3.org/1999/xlink" x="0px" y="0px"
	 width="1000px" height="1000px" viewBox="0 0 1000 1000" enable-background="new 0 0 1000 1000" xml:space="preserve">
<g>
	<path d="M618.7,531.9c4.9,0,9.8-1,14.5-3.1l108.2-49.1c17.6-8,25.4-28.7,17.4-46.3c-3.8-8.3-10.4-14.4-18.1-17.7l-167,80.8
		l17.6,22.3C598.1,527.2,608.3,531.9,618.7,531.9z"/>
	<path d="M518.3,628.1c-16,7.3-36.3,0.3-43.9-16.4l-25.1-55.1l-20,9.7c-1.6,9.3-5.8,18.2-12.8,25.6c-9.2,9.7-22.2,15.2-35.5,15.2
		c-12.6,0-24.6-4.8-33.8-13.5l-6-5.7v27.5h-46.6c-6.6,0-12,5.4-12,12v132.4c0,6.6,5.4,12,12,12h19.9c6.6,0,12-5.4,12-12v-87.9h14.6
		v266c0,25.8,20.4,47.4,46.2,47.8c26.3,0.4,47.8-20.8,47.8-47V691.4c0-6.3,5.1-11.4,11.4-11.4c6.3,0,11.4,5.1,11.4,11.4v246.4
		c0,25.8,20.4,47.4,46.2,47.8c26.3,0.4,47.8-20.8,47.8-47V506.8L509,527.7l25.8,56.5C542.3,600.8,534.9,620.5,518.3,628.1z"/>
	<path d="M767.6,346.6c-2.9,0-5.7,0.6-8.3,1.9l-154.3,74.7l-195.3,94.5l5.1,4.9c8.2,7.8,13.1,17.7,14.6,28.1l26.7-12.9l31.1,68.2
		c3.1,6.8,9.9,11.2,17.4,11.2c1,0,1.9-0.1,2.9-0.2c1.7-0.3,3.4-0.8,5-1.5c9.6-4.4,13.9-15.7,9.5-25.3l-31.4-69l285.4-138.1
		c4.6-2.2,8.1-6.1,9.7-10.9c1.7-4.8,1.4-10-0.8-14.6C781.6,350.8,774.9,346.6,767.6,346.6z"/>
	<path d="M218.1,433.4c-0.9,10.6,3.1,21,10.8,28.3l128,121.7c0,0,0.1,0.1,0.1,0.1c2.3,2.2,4.8,4,7.5,5.4
		c34.5,18.4,69.3-28.9,40.6-56.3c0,0-59.7-56.7-77.6-73.8c-2.8-2.7-2.9-7.1-0.2-9.9c2.7-2.8,7.1-2.9,9.9-0.2l61.7,58.7L596,411.9
		c-22.9-28.9-44.7-59-68-87.4c-19.9-24.2-50.1-38.4-81.4-38.4c-22.9,0-44.1,7.3-61.3,19.7c-1.7,0.8-151.8,101.5-151.8,101.5
		C224.7,413.2,219,422.8,218.1,433.4z"/>
	<path d="M542.1,200.6c0-21.4,3.2-68.8-16.3-103.5V72.6l27-39.9L446.6,7L340.4,32.7l27,39.9V97c-19.5,34.8-16.3,82.1-16.3,103.5
		c0,36-32,48-32,48c11,55,88,16,88,16c-12.5-7.3-18.9-21.8-22-36.4c13.1,21.7,35.8,36,61.5,36c25.7,0,48.4-14.3,61.5-36
		c-3.1,14.7-9.5,29.1-22,36.4c0,0,77,39,88-16C574.1,248.6,542.1,236.6,542.1,200.6z"/>
</g>
</svg>
