<?xml version="1.0" encoding="iso-8859-1"?>
<!-- Generator: Adobe Illustrator 16.0.4, SVG Export Plug-In . SVG Version: 6.00 Build 0)  -->
<!DOCTYPE svg PUBLIC "-//W3C//DTD SVG 1.1//EN" "http://www.w3.org/Graphics/SVG/1.1/DTD/svg11.dtd">
<svg version="1.1" id="Capa_1" xmlns="http://www.w3.org/2000/svg" xmlns:xlink="http://www.w3.org/1999/xlink" x="0px" y="0px"
	 width="43.125px" height="47.408px" viewBox="0 0 43.125 47.408" style="enable-background:new 0 0 43.125 47.408;"
	 xml:space="preserve">
<g id="Headphones">
	<path d="M40.156,21.991c-0.552,0-1-0.448-1-1C39.156,10.342,31.396,2,21.488,2S3.82,10.342,3.82,20.991c0,0.552-0.448,1-1,1
		s-1-0.448-1-1C1.82,9.22,10.459,0,21.488,0s19.668,9.22,19.668,20.991C41.156,21.543,40.708,21.991,40.156,21.991z"/>
	<g>
		<path d="M5.898,33.584c-0.552,0-1-0.448-1-1V20.772c0-0.552,0.448-1,1-1s1,0.448,1,1v11.812
			C6.898,33.136,6.451,33.584,5.898,33.584z"/>
		<path d="M10.839,33.584c-0.552,0-1-0.448-1-1V20.768c0-0.552,0.448-1,1-1s1,0.448,1,1v11.816
			C11.839,33.136,11.391,33.584,10.839,33.584z"/>
		<path d="M8.376,35.585c-1.909,0-3.462-1.346-3.462-3.001c0-0.552,0.448-1,1-1s1,0.448,1,1c0,0.542,0.669,1.001,1.462,1.001
			c0.793,0,1.463-0.458,1.463-1.001c0-0.552,0.448-1,1-1s1,0.448,1,1C11.839,34.239,10.286,35.585,8.376,35.585z"/>
		<path d="M10.839,21.69c-0.552,0-1-0.448-1-1c0-0.543-0.67-1.001-1.463-1.001c-0.792,0-1.462,0.458-1.462,1.001
			c0,0.552-0.448,1-1,1s-1-0.448-1-1c0-1.655,1.553-3.001,3.462-3.001c1.91,0,3.463,1.347,3.463,3.001
			C11.839,21.242,11.391,21.69,10.839,21.69z"/>
	</g>
	<path d="M6.101,34.362c-0.034,0-0.068-0.001-0.102-0.005C2.298,33.98,0,31.01,0,26.604c0-4.407,2.298-7.377,5.999-7.753
		c0.55-0.057,1.04,0.345,1.096,0.894c0.056,0.549-0.345,1.04-0.894,1.096C2.303,21.236,2,25.352,2,26.604s0.303,5.367,4.201,5.764
		c0.55,0.056,0.95,0.546,0.894,1.096C7.042,33.979,6.607,34.362,6.101,34.362z"/>
	<g>
		<path d="M37.227,33.584c-0.552,0-1-0.448-1-1V20.772c0-0.552,0.448-1,1-1s1,0.448,1,1v11.812
			C38.227,33.136,37.779,33.584,37.227,33.584z"/>
		<path d="M32.286,33.584c-0.552,0-1-0.448-1-1V20.768c0-0.552,0.448-1,1-1s1,0.448,1,1v11.816
			C33.286,33.136,32.838,33.584,32.286,33.584z"/>
		<path d="M34.749,35.585c-1.91,0-3.463-1.346-3.463-3.001c0-0.552,0.448-1,1-1s1,0.448,1,1c0,0.542,0.67,1.001,1.463,1.001
			c0.792,0,1.462-0.458,1.462-1.001c0-0.552,0.448-1,1-1s1,0.448,1,1C38.211,34.239,36.658,35.585,34.749,35.585z"/>
		<path d="M37.211,21.69c-0.552,0-1-0.448-1-1c0-0.543-0.669-1.001-1.462-1.001c-0.793,0-1.463,0.458-1.463,1.001
			c0,0.552-0.448,1-1,1s-1-0.448-1-1c0-1.655,1.553-3.001,3.463-3.001c1.909,0,3.462,1.347,3.462,3.001
			C38.211,21.242,37.763,21.69,37.211,21.69z"/>
	</g>
	<path d="M37.024,34.362c-0.507,0-0.941-0.384-0.994-0.899c-0.056-0.549,0.344-1.04,0.894-1.096
		c3.898-0.397,4.201-4.512,4.201-5.764s-0.303-5.368-4.201-5.764c-0.549-0.056-0.95-0.547-0.894-1.096
		c0.056-0.549,0.543-0.957,1.096-0.894c3.7,0.376,5.999,3.347,5.999,7.753c0,4.406-2.298,7.377-5.999,7.753
		C37.092,34.361,37.058,34.362,37.024,34.362z"/>
	<path d="M36.352,20.099c-0.383,0-0.71-0.292-0.746-0.681c-0.716-7.797-6.783-13.677-14.111-13.677
		c-7.413,0-13.345,5.719-14.106,13.599c-0.041,0.412-0.404,0.711-0.819,0.674c-0.412-0.04-0.714-0.406-0.674-0.819
		c0.824-8.525,7.53-14.954,15.599-14.954c8.108,0,14.817,6.465,15.605,15.039c0.038,0.413-0.266,0.778-0.678,0.816
		C36.398,20.098,36.375,20.099,36.352,20.099z"/>
	<path d="M6.627,47.408c-0.414,0-0.75-0.336-0.75-0.75V33.97c0-0.414,0.336-0.75,0.75-0.75s0.75,0.336,0.75,0.75v12.688
		C7.377,47.072,7.041,47.408,6.627,47.408z"/>
</g>
<g>
</g>
<g>
</g>
<g>
</g>
<g>
</g>
<g>
</g>
<g>
</g>
<g>
</g>
<g>
</g>
<g>
</g>
<g>
</g>
<g>
</g>
<g>
</g>
<g>
</g>
<g>
</g>
<g>
</g>
</svg>
