<?xml version="1.0" encoding="iso-8859-1"?>
<!-- Generator: Adobe Illustrator 17.1.0, SVG Export Plug-In . SVG Version: 6.00 Build 0)  -->
<!DOCTYPE svg PUBLIC "-//W3C//DTD SVG 1.1//EN" "http://www.w3.org/Graphics/SVG/1.1/DTD/svg11.dtd">
<svg version="1.1" id="Layer_1" xmlns="http://www.w3.org/2000/svg" xmlns:xlink="http://www.w3.org/1999/xlink" x="0px" y="0px"
	 viewBox="0 0 64 64" style="enable-background:new 0 0 64 64;" xml:space="preserve">
<g>
	<path d="M56,55.399V34.544c0-1.304-0.744-2.958-1.82-3.695l-20.306-13.99c-1.076-0.737-2.822-0.731-3.894,0.012l-19.018,13.18
		C9.891,30.794,9,32.453,9,33.757v21.642C9,56.703,10.101,58,11.405,58h42.496C55.205,58,56,56.703,56,55.399z M32.804,52.387
		l-0.176,0.102C21.666,48.064,17.442,37.843,22.27,33.417C27.097,28.992,32.628,35,32.628,35h0.04c0,0,5.531-6.008,10.359-1.583
		C47.854,37.843,43.766,47.962,32.804,52.387z"/>
	<path d="M59.688,25.787L33.875,8.149c-1.077-0.736-2.812-0.722-3.877,0.031L4.664,26.084C3.6,26.836,3.346,28.31,4.099,29.374
		l0.062,0.088c0.753,1.065,2.226,1.318,3.291,0.565l22.462-15.875c1.065-0.753,2.803-0.77,3.883-0.04l23.177,15.682
		c1.08,0.731,2.548,0.448,3.278-0.632l0.061-0.09C61.045,27.994,60.764,26.522,59.688,25.787z"/>
	<path d="M48.074,15.891C49.128,16.658,50,16.174,50,14.87V8.967C50,7.664,48.91,7,47.606,7h-3.935
		c-1.304,0-2.361,0.772-2.361,1.967s0.855,2.688,1.909,3.454L48.074,15.891z"/>
</g>
</svg>
