<?xml version="1.0" encoding="iso-8859-1"?>
<!-- Generator: Adobe Illustrator 16.0.0, SVG Export Plug-In . SVG Version: 6.00 Build 0)  -->
<!DOCTYPE svg PUBLIC "-//W3C//DTD SVG 1.1//EN" "http://www.w3.org/Graphics/SVG/1.1/DTD/svg11.dtd">
<svg version="1.1" id="Layer_1" xmlns="http://www.w3.org/2000/svg" xmlns:xlink="http://www.w3.org/1999/xlink" x="0px" y="0px"
	 width="512px" height="512px" viewBox="0 0 512 512" style="enable-background:new 0 0 512 512;" xml:space="preserve">
<g>
	<path d="M255.995,146.536c18.002,0,35.423-7.846,47.369-21.311c12.061-13.593,17.722-32.048,15.429-50.071
		c-2.248-17.677-12.143-33.861-26.781-44.006c-14.995-10.394-34.183-13.792-51.85-9.244c-17.153,4.415-31.95,16.163-40.21,31.822
		c-8.522,16.159-9.584,35.729-2.879,52.723c6.488,16.441,19.916,29.702,36.439,35.979
		C240.679,145.151,248.33,146.536,255.995,146.536z"/>
	<path d="M413.054,20.045c-8.543-5.935-20.277-3.821-26.213,4.721c0,0-58.797,89.646-78.961,113.653
		c-15.046,17.913-29.379,22.915-50.979,19.929c-10.667-1.475-142.831-34.333-142.831-34.333c-9.274-2.24-19.01,3.081-22.171,12.073
		c-3.052,8.68,0.821,18.597,8.966,22.89c0.742,0.391,1.511,0.732,2.298,1.022l143.352,52.762
		c0.816,2.469,7.846,21.487,11.833,41.393c2.538,12.663,3.614,25.566,4.345,38.447c0.514,9.033,0.375,18.07,0.271,27.11
		c-0.107,9.317,1.421,18.432,5.113,27.023c-0.316,11.767-0.924,23.531-1.924,35.261c-1.095,12.834-3.108,25.591-5.205,38.309
		c-2.65,16.069-6.803,22.246-7.083,22.665c-5.144,1.946-11.37,1.279-16.696,0.58c-6.363-0.835-12.632-2.338-18.786-4.14
		c-5.408-1.584-10.743-3.417-16-5.444c-4.18-1.612-8.248-3.452-12.368-5.201c-1.917-0.814-3.822-1.714-5.931-2.171
		c-2.166-0.47-4.398-0.622-6.608-0.453c-4.376,0.335-8.627,1.934-12.134,4.572c-7.324,5.512-10.712,15.144-8.477,24.025
		c1.583,6.286,5.82,11.696,11.546,14.735c18.377,10.049,38.03,18.672,58.566,23.128c11.119,2.412,22.655,3.6,33.976,1.972
		c11.763-1.69,22.946-6.623,31.486-14.993c2.037-1.996,3.917-4.192,5.608-6.491c0,0.007-0.004,0.014-0.012,0.019
		c-0.021,0.03-0.044,0.061-0.064,0.093c0.928-1.544,2.103-2.964,3.082-4.478c1.666-2.575,3.203-5.231,4.625-7.948
		c2.846-5.435,5.281-11.085,7.445-16.823c4.344-11.518,7.706-23.4,10.591-35.36c1.894-7.852,3.583-15.753,5.111-23.684
		c3.197-0.14,6.364-0.512,9.504-1.126c5.679,11.608,10.942,23.428,15.409,35.56c-11.96,4.665-17.811,18.745-12.726,30.529
		c3.441,7.979,7.622,15.603,13.492,22.085c6.381,7.046,14.46,12.516,23.683,15.054c5.044,1.389,10.34,1.857,15.518,1.059
		c10.4-1.631,19.107-9.727,20.96-20.68c4.004-23.586,0.181-47.696-5.239-70.752c-2.937-12.492-6.513-24.835-10.503-37.029
		c-2.612-7.984-5.318-15.977-8.453-23.775c-0.622-1.547-1.216-3.107-1.878-4.638c0.774-5.184,0.839-10.385,0.409-15.601
		c-0.43-5.215-0.787-10.445-1.325-15.65c-1.273-12.316-2.989-24.617-5.307-36.781c-4.83-25.334-11.619-50.367-21.602-74.186
		c-2.712-6.47-5.625-12.848-8.872-19.067l67.023-125.525C423.372,36.069,420.984,25.556,413.054,20.045
		C404.511,14.11,420.984,25.556,413.054,20.045z"/>
</g>
</svg>
