<?xml version="1.0" encoding="iso-8859-1"?>
<!-- Generator: Adobe Illustrator 16.0.0, SVG Export Plug-In . SVG Version: 6.00 Build 0)  -->
<!DOCTYPE svg PUBLIC "-//W3C//DTD SVG 1.1//EN" "http://www.w3.org/Graphics/SVG/1.1/DTD/svg11.dtd">
<svg version="1.1" xmlns="http://www.w3.org/2000/svg" xmlns:xlink="http://www.w3.org/1999/xlink" x="0px" y="0px"
	 width="31.837px" height="49.128px" viewBox="0 0 31.837 49.128" style="enable-background:new 0 0 31.837 49.128;"
	 xml:space="preserve">
<g id="b1_pear">
	<path d="M25.998,22.623c0.111-0.655,0.178-1.329,0.178-2.019c0-6.133-4.592-11.106-10.256-11.106S5.664,14.471,5.664,20.604
		c0,0.69,0.066,1.364,0.178,2.019C2.277,25.364,0,29.525,0,34.188c0,8.251,7.129,14.94,15.92,14.94s15.917-6.689,15.917-14.94
		C31.837,29.525,29.562,25.364,25.998,22.623z"/>
	<path d="M15.92,11.434c-1.224-1.183-2.006-2.087-2.678-2.912c-0.654-0.82-1.152-1.51-1.562-2.161
		c-0.412-0.656-0.713-1.292-1.131-2.126c-0.412-0.85-0.984-1.826-1.844-3.325c1.402-0.991,3.037-1.112,4.545-0.649
		c1.507,0.472,2.834,1.565,3.629,2.894c0.819,1.324,1.151,2.84,1.025,4.279C17.754,8.868,17.23,10.297,15.92,11.434z"/>
	<path d="M17.583,8.692c0.063-1.093,0.521-1.845,1.045-2.464c0.543-0.601,1.211-1.028,1.943-1.271
		c0.73-0.246,1.527-0.312,2.329-0.146c0.796,0.172,1.602,0.54,2.305,1.36c-0.65,0.889-1.201,1.357-1.735,1.794
		c-0.538,0.392-1.056,0.678-1.612,0.857c-0.556,0.18-1.145,0.271-1.82,0.27C19.346,9.072,18.619,8.992,17.583,8.692z"/>
</g>
<g id="Capa_1">
</g>
</svg>
